<?xml version="1.0" encoding="utf-8"?>
<!-- Generator: Adobe Illustrator 28.1.0, SVG Export Plug-In . SVG Version: 6.00 Build 0)  -->
<svg version="1.1" id="Layer_1" xmlns="http://www.w3.org/2000/svg" xmlns:xlink="http://www.w3.org/1999/xlink" x="0px" y="0px"
	 viewBox="0 0 67 22" style="enable-background:new 0 0 67 22;" xml:space="preserve">
<style type="text/css">
	.st0{fill:#FE5E3A;}
	.st1{fill:#FFFFFF;}
</style>
<path class="st0" d="M0.9,1.6h4V21h-4V1.6z"/>
<g>
	<path class="st1" d="M8.7,2.1h13.8v4.3h-4.8v14.3h-4.2V6.4H8.7V2.1z"/>
	<path class="st1" d="M30.3,21c-5,0-8.3-2.6-8.3-7.4c0-4.2,2.7-7.3,6.9-7.3c4.3,0,6.4,3.3,6.4,7.1c0,0.6,0,1.2-0.1,1.6h-8.8
		c0.5,1.8,2.1,2.6,4.5,2.6c1.2,0,2.2-0.2,3.1-0.5l0.3,3.2C33.2,20.8,31.8,21,30.3,21z M26.3,12.6h5.3C31.5,11.2,30.5,10,29,10
		C27.7,10,26.6,10.8,26.3,12.6z"/>
	<path class="st1" d="M48,20.2c-0.9,0.5-2.2,0.8-3.6,0.8c-4.6,0-7.6-2.7-7.6-7.3c0-4.4,2.8-7.3,7.4-7.3C45.7,6.3,47,6.6,48,7l-0.3,4
		c-0.8-0.4-1.8-0.6-2.9-0.6c-2.4,0-3.8,1.4-3.8,3.5c0,2.1,1.4,3.4,3.7,3.4c1,0,2.1-0.2,3-0.7L48,20.2z"/>
	<path class="st1" d="M57.1,10.3c-1.9,0-2.7,1.3-2.7,3.2v7.1h-4V1h3.9v7.2h0.1c0.8-1.2,2.1-2,4.1-2c3.5,0,5.3,2.3,5.3,5.7v8.6h-4
		v-7.1C59.8,11.6,59,10.3,57.1,10.3z"/>
</g>
</svg>
